<mxfile host="65bd71144e">
    <diagram id="yCa0GJiP0UrgbVNkVmcU" name="Страница 1">
        <mxGraphModel dx="790" dy="520" grid="1" gridSize="10" guides="1" tooltips="1" connect="1" arrows="1" fold="1" page="1" pageScale="1" pageWidth="827" pageHeight="1169" math="0" shadow="0">
            <root>
                <mxCell id="0"/>
                <mxCell id="1" parent="0"/>
                <mxCell id="2" value="" style="edgeStyle=none;html=1;" edge="1" parent="1" source="3" target="5">
                    <mxGeometry relative="1" as="geometry"/>
                </mxCell>
                <mxCell id="3" value="start" style="ellipse;whiteSpace=wrap;html=1;" vertex="1" parent="1">
                    <mxGeometry x="230" y="10" width="100" height="40" as="geometry"/>
                </mxCell>
                <mxCell id="4" value="" style="edgeStyle=none;html=1;" edge="1" parent="1" source="5" target="7">
                    <mxGeometry relative="1" as="geometry"/>
                </mxCell>
                <mxCell id="5" value="size, array" style="shape=parallelogram;perimeter=parallelogramPerimeter;whiteSpace=wrap;html=1;fixedSize=1;" vertex="1" parent="1">
                    <mxGeometry x="220" y="70" width="120" height="50" as="geometry"/>
                </mxCell>
                <mxCell id="6" value="" style="edgeStyle=none;html=1;" edge="1" parent="1" source="7" target="9">
                    <mxGeometry relative="1" as="geometry"/>
                </mxCell>
                <mxCell id="7" value="&lt;div style=&quot;color: rgb(255, 255, 255); background-color: rgb(0, 36, 81); font-family: Consolas, &amp;quot;Courier New&amp;quot;, monospace; font-size: 14px; line-height: 19px;&quot;&gt;&lt;span style=&quot;color: #ff9da4;&quot;&gt;newarray[size]&lt;br&gt;&lt;/span&gt;&lt;div style=&quot;line-height: 19px;&quot;&gt;&lt;span style=&quot;color: #ff9da4;&quot;&gt;index&lt;/span&gt;&lt;span style=&quot;color: #99ffff;&quot;&gt;=&lt;/span&gt;&lt;span style=&quot;color: #ffc58f;&quot;&gt;0&lt;/span&gt;&lt;/div&gt;&lt;/div&gt;" style="whiteSpace=wrap;html=1;" vertex="1" parent="1">
                    <mxGeometry x="220" y="150" width="120" height="60" as="geometry"/>
                </mxCell>
                <mxCell id="8" value="" style="edgeStyle=none;html=1;" edge="1" parent="1" source="9">
                    <mxGeometry relative="1" as="geometry">
                        <mxPoint x="280" y="350" as="targetPoint"/>
                    </mxGeometry>
                </mxCell>
                <mxCell id="18" value="" style="edgeStyle=none;html=1;" edge="1" parent="1" source="9" target="16">
                    <mxGeometry relative="1" as="geometry"/>
                </mxCell>
                <mxCell id="9" value="&lt;div style=&quot;color: rgb(255, 255, 255); background-color: rgb(0, 36, 81); font-family: Consolas, &amp;quot;Courier New&amp;quot;, monospace; font-size: 14px; line-height: 19px;&quot;&gt;&lt;span style=&quot;color: #ff9da4;&quot;&gt;i&lt;/span&gt; &lt;span style=&quot;color: #99ffff;&quot;&gt;&amp;lt;&lt;/span&gt; &lt;span style=&quot;color: #ffc58f;&quot;&gt;size&lt;/span&gt;&lt;/div&gt;" style="rhombus;whiteSpace=wrap;html=1;" vertex="1" parent="1">
                    <mxGeometry x="240" y="240" width="80" height="80" as="geometry"/>
                </mxCell>
                <mxCell id="10" value="" style="edgeStyle=none;html=1;" edge="1" parent="1" target="12">
                    <mxGeometry relative="1" as="geometry">
                        <mxPoint x="280" y="430" as="sourcePoint"/>
                    </mxGeometry>
                </mxCell>
                <mxCell id="12" value="&lt;div style=&quot;color: rgb(255, 255, 255); background-color: rgb(0, 36, 81); font-family: Consolas, &amp;quot;Courier New&amp;quot;, monospace; font-size: 14px; line-height: 19px;&quot;&gt;&lt;div style=&quot;line-height: 19px;&quot;&gt;&lt;div&gt;&lt;span style=&quot;color: #ff9da4;&quot;&gt;newarray&lt;/span&gt;[&lt;span style=&quot;color: #ff9da4;&quot;&gt;index&lt;/span&gt;]&lt;span style=&quot;color: #99ffff;&quot;&gt;=&lt;/span&gt;&lt;span style=&quot;color: #ffc58f;&quot;&gt;array&lt;/span&gt;[&lt;span style=&quot;color: #ff9da4;&quot;&gt;i&lt;/span&gt;];&lt;/div&gt;&lt;div&gt;&lt;span style=&quot;color: #ff9da4;&quot;&gt;index&lt;/span&gt;&lt;span style=&quot;color: #99ffff;&quot;&gt;++&lt;/span&gt;;&lt;/div&gt;&lt;/div&gt;&lt;/div&gt;" style="whiteSpace=wrap;html=1;" vertex="1" parent="1">
                    <mxGeometry x="180" y="460" width="200" height="60" as="geometry"/>
                </mxCell>
                <mxCell id="15" value="finish" style="ellipse;whiteSpace=wrap;html=1;" vertex="1" parent="1">
                    <mxGeometry x="225" y="560" width="110" height="50" as="geometry"/>
                </mxCell>
                <mxCell id="16" value="&lt;div style=&quot;color: rgb(255, 255, 255); background-color: rgb(0, 36, 81); font-family: Consolas, &amp;quot;Courier New&amp;quot;, monospace; font-size: 14px; line-height: 19px;&quot;&gt;&lt;span style=&quot;color: #ffc58f;&quot;&gt;array&lt;/span&gt;[&lt;span style=&quot;color: #ff9da4;&quot;&gt;i&lt;/span&gt;]&lt;span style=&quot;color: #99ffff;&quot;&gt;.&lt;/span&gt;&lt;span style=&quot;color: #ff9da4;&quot;&gt;Length&lt;/span&gt;&lt;span style=&quot;color: #99ffff;&quot;&gt;&amp;lt;=&lt;/span&gt;&lt;span style=&quot;color: #ffc58f;&quot;&gt;3&lt;/span&gt;&lt;/div&gt;" style="rhombus;whiteSpace=wrap;html=1;" vertex="1" parent="1">
                    <mxGeometry x="190" y="350" width="180" height="80" as="geometry"/>
                </mxCell>
                <mxCell id="19" value="yes" style="text;html=1;strokeColor=none;fillColor=none;align=center;verticalAlign=middle;whiteSpace=wrap;rounded=0;" vertex="1" parent="1">
                    <mxGeometry x="300" y="320" width="60" height="30" as="geometry"/>
                </mxCell>
                <mxCell id="21" value="no" style="text;html=1;strokeColor=none;fillColor=none;align=center;verticalAlign=middle;whiteSpace=wrap;rounded=0;" vertex="1" parent="1">
                    <mxGeometry x="360" y="400" width="60" height="30" as="geometry"/>
                </mxCell>
                <mxCell id="24" value="yes" style="text;html=1;strokeColor=none;fillColor=none;align=center;verticalAlign=middle;whiteSpace=wrap;rounded=0;" vertex="1" parent="1">
                    <mxGeometry x="300" y="430" width="60" height="30" as="geometry"/>
                </mxCell>
                <mxCell id="25" value="" style="endArrow=classic;html=1;exitX=1;exitY=0.5;exitDx=0;exitDy=0;entryX=1;entryY=0.5;entryDx=0;entryDy=0;" edge="1" parent="1" source="16" target="9">
                    <mxGeometry width="50" height="50" relative="1" as="geometry">
                        <mxPoint x="260" y="380" as="sourcePoint"/>
                        <mxPoint x="310" y="330" as="targetPoint"/>
                        <Array as="points">
                            <mxPoint x="420" y="390"/>
                            <mxPoint x="420" y="280"/>
                        </Array>
                    </mxGeometry>
                </mxCell>
                <mxCell id="26" value="" style="endArrow=classic;html=1;exitX=0;exitY=0.5;exitDx=0;exitDy=0;entryX=0;entryY=0.5;entryDx=0;entryDy=0;" edge="1" parent="1" source="9" target="15">
                    <mxGeometry width="50" height="50" relative="1" as="geometry">
                        <mxPoint x="260" y="380" as="sourcePoint"/>
                        <mxPoint x="310" y="330" as="targetPoint"/>
                        <Array as="points">
                            <mxPoint x="130" y="280"/>
                            <mxPoint x="130" y="585"/>
                        </Array>
                    </mxGeometry>
                </mxCell>
                <mxCell id="27" value="no" style="text;html=1;strokeColor=none;fillColor=none;align=center;verticalAlign=middle;whiteSpace=wrap;rounded=0;" vertex="1" parent="1">
                    <mxGeometry x="150" y="240" width="60" height="30" as="geometry"/>
                </mxCell>
                <mxCell id="28" value="" style="endArrow=classic;html=1;exitX=1;exitY=0.5;exitDx=0;exitDy=0;" edge="1" parent="1" source="12">
                    <mxGeometry width="50" height="50" relative="1" as="geometry">
                        <mxPoint x="190" y="380" as="sourcePoint"/>
                        <mxPoint x="420" y="390" as="targetPoint"/>
                        <Array as="points">
                            <mxPoint x="420" y="490"/>
                        </Array>
                    </mxGeometry>
                </mxCell>
            </root>
        </mxGraphModel>
    </diagram>
</mxfile>